HIERARCHY
ROOT Hips
{
	OFFSET 0.00000 0.00000 0.00000
	CHANNELS 6 Xposition Yposition Zposition Zrotation Yrotation Xrotation 
	JOINT LHipJoint
	{
		OFFSET 0 0 0
		CHANNELS 3 Zrotation Yrotation Xrotation
		JOINT LeftHip
		{
			OFFSET 1.62964 -1.40469 0.78906
			CHANNELS 3 Zrotation Yrotation Xrotation
			JOINT LeftKnee
			{
				OFFSET 2.29640 -6.30932 0.00000
				CHANNELS 3 Zrotation Yrotation Xrotation
				JOINT LeftAnkle
				{
					OFFSET 2.29451 -6.30412 0.00000
					CHANNELS 3 Zrotation Yrotation Xrotation
					JOINT LeftToe
					{
						OFFSET 0.03611 -0.09921 1.56387
						CHANNELS 3 Zrotation Yrotation Xrotation
						End Site
						{
							OFFSET 0.00000 -0.00000 0.80291
						}
					}
				}
			}
		}
	}
	JOINT RHipJoint
	{
		OFFSET 0 0 0
		CHANNELS 3 Zrotation Yrotation Xrotation
		JOINT RightHip
		{
			OFFSET -1.73712 -1.40469 0.78906
			CHANNELS 3 Zrotation Yrotation Xrotation
			JOINT RightKnee
			{
				OFFSET -2.28137 -6.26801 0.00000
				CHANNELS 3 Zrotation Yrotation Xrotation
				JOINT RightAnkle
				{
					OFFSET -2.28681 -6.28298 0.00000
					CHANNELS 3 Zrotation Yrotation Xrotation
					JOINT RightToe
					{
						OFFSET -0.15927 -0.43759 1.61103
						CHANNELS 3 Zrotation Yrotation Xrotation
						End Site
						{
							OFFSET -0.00000 -0.00000 0.84630
						}
					}
				}
			}
		}
	}
	JOINT lowerback
	{
		OFFSET 0 0 0
		CHANNELS 3 Zrotation Yrotation Xrotation
		JOINT Chest
		{
			OFFSET -0.04227 2.04338 -0.00225
			CHANNELS 3 Zrotation Yrotation Xrotation
			JOINT Chest2
			{
				OFFSET -0.02148 2.04482 -0.04273
				CHANNELS 3 Zrotation Yrotation Xrotation
				JOINT lowerneck
				{
					OFFSET 0 0 0
					CHANNELS 3 Zrotation Yrotation Xrotation
					JOINT Neck
					{
						OFFSET 0.09180 1.44629 0.19359
						CHANNELS 3 Zrotation Yrotation Xrotation
						JOINT Head
						{
							OFFSET 0.00887 1.40645 0.14750
							CHANNELS 3 Zrotation Yrotation Xrotation
							End Site
							{
								OFFSET -0.00669 1.50671 0.03707
							}
						}
					}
				}
				JOINT LeftCollar
				{
					OFFSET 0 0 0
					CHANNELS 3 Zrotation Yrotation Xrotation
					JOINT LeftShoulder
					{
						OFFSET 2.17674 1.86763 -0.06520
CHANNELS 3 Zrotation Xrotation Yrotation
						JOINT LeftElbow
						{
OFFSET 0 -4.657760 0.000000
CHANNELS 3 Zrotation Xrotation Yrotation
							JOINT LeftWrist
							{
OFFSET 0 -3.555390 0.000000
CHANNELS 3 Zrotation Xrotation Yrotation
								JOINT lhand
								{
									OFFSET 0 0 0
CHANNELS 3 Zrotation Xrotation Yrotation
									JOINT LFingers
									{
OFFSET 0 -0.707260 0.000000
CHANNELS 3 Zrotation Xrotation Yrotation
										End Site
										{
OFFSET 0 -0.570220 0.000000
										}
									}
								}
								JOINT LThumb
								{
OFFSET 0 0.000000 0.000000
CHANNELS 3 Zrotation Xrotation Yrotation
									End Site
									{
OFFSET 0 -0.578920 0.578920
									}
								}
							}
						}
					}
				}
				JOINT RightCollar
				{
					OFFSET 0 0 0
					CHANNELS 3 Zrotation Yrotation Xrotation
					JOINT RightShoulder
					{
						OFFSET -2.80694 1.55459 -0.32496
CHANNELS 3 Zrotation Xrotation Yrotation
						JOINT RightElbow
						{
OFFSET 0 -4.719250 -0.000000
CHANNELS 3 Zrotation Xrotation Yrotation
							JOINT RightWrist
							{
OFFSET 0 -3.569900 0.000000
CHANNELS 3 Zrotation Xrotation Yrotation
								JOINT rhand
								{
									OFFSET 0 0 0
CHANNELS 3 Zrotation Xrotation Yrotation
									JOINT RFingers
									{
OFFSET 0 -0.507760 0.000000
CHANNELS 3 Zrotation Xrotation Yrotation
										End Site
										{
OFFSET 0 -0.409370 0.000000
										}
									}
								}
								JOINT RThumb
								{
OFFSET 0 0.000000 0.000000
CHANNELS 3 Zrotation Xrotation Yrotation
									End Site
									{
OFFSET 0 -0.415620 0.415620
									}
								}
							}
						}
					}
				}
			}
		}
	}
}
MOTION
Frames: 8
Frame Time: 0.008333333333333333
9.361500 16.343100 19.958600 178.514000 -3.842000 -153.801000 0.000000 0.000000 0.000000 -17.810300 -17.989500 -20.062100 0.238400 3.142300 8.675200 0.121100 -4.528400 -6.504300 1.311700 -7.254700 -20.472200 0.000000 0.000000 0.000000 18.780400 13.414800 -18.250100 -0.067200 -1.672000 4.600000 -1.040900 -1.086300 -19.699200 -2.236800 9.342900 -26.874000 -5.506300 -1.936500 -28.142300 0.097800 -1.538200 -2.385300 2.634100 -1.315100 13.109000 -3.623700 -3.247500 -0.138700 7.376700 -4.500300 -12.295500 3.288400 -2.680000 -3.750100 -0.000000 -0.000000 0.000000 4.864400 -2.122200 -22.412700 8.984000 -15.135000 1.195900 21.810500 3.038800 11.796400 0.000000 0.000000 0.000000 -7.125000 0.000000 0.000000 -3.744600 17.319100 -2.465400 -0.000000 -0.000000 0.000000 1.902300 4.750400 -4.210900 -11.233400 -18.645100 -1.849800 -10.688500 20.115000 53.528700 0.000000 0.000000 0.000000 7.125000 0.000000 -0.000000 69.342700 75.377600 -54.642900
9.359826 16.323204 19.967859 178.706070 -3.763301 -152.936192 0.000000 0.000000 0.000000 -17.205821 -18.356305 -21.216294 0.253372 3.238926 8.944689 0.122676 -4.430690 -6.513854 1.299092 -7.221014 -20.371733 0.000000 0.000000 0.000000 18.680327 13.921471 -19.457876 -0.081187 -1.837377 5.056536 -1.049272 -1.016761 -19.748843 -2.172284 9.216134 -26.473706 -5.292659 -1.852088 -29.018829 0.215406 -1.508848 -2.185153 2.471382 -1.299734 13.001244 -3.255910 -3.194607 0.108233 7.142473 -4.473706 -12.969321 3.177196 -2.705117 -4.050911 0.000000 0.000000 0.000000 4.508824 -2.199718 -18.789470 8.552876 -14.444927 1.085878 21.837882 6.699952 11.559021 0.000000 0.000000 0.000000 -7.125000 0.000000 0.000000 -3.716922 17.569973 -2.426690 0.000000 0.000000 0.000000 1.854923 4.866726 -4.544413 -11.146230 -18.512030 -1.822024 -11.499824 20.530265 51.225927 0.000000 0.000000 0.000000 7.125000 0.000000 0.000000 60.620648 74.912790 -46.290411
9.353883 16.304374 19.969067 178.812785 -3.535908 -152.253735 0.000000 0.000000 0.000000 -16.879911 -18.585473 -22.005883 0.256801 3.260575 9.005154 0.136182 -4.111541 -6.736313 1.596675 -7.968622 -22.619514 0.000000 0.000000 0.000000 18.535926 14.193026 -20.459732 -0.093815 -1.975111 5.436931 -1.052504 -0.800080 -19.693828 -2.235026 9.339324 -26.862564 -5.170484 -1.779121 -29.737257 0.243389 -1.473094 -2.307515 2.425640 -1.300082 13.167110 -3.015184 -3.070616 0.438097 7.136863 -4.298612 -13.920742 2.863370 -2.683385 -4.001474 0.000000 0.000000 0.000000 4.346656 -2.265887 -16.157334 8.034360 -13.608391 0.960337 21.985538 9.052253 11.603801 0.000000 0.000000 0.000000 -7.125000 0.000000 0.000000 -3.615237 17.508813 -2.364799 0.000000 0.000000 0.000000 1.766032 5.037368 -4.626611 -11.084860 -18.418243 -1.802686 -12.689816 21.006153 47.792774 0.000000 0.000000 0.000000 7.125000 0.000000 0.000000 48.894371 73.648160 -35.197813
9.348352 16.301604 19.962893 178.851332 -3.360069 -152.190028 0.000000 0.000000 0.000000 -16.877644 -18.622194 -21.972600 0.253749 3.240860 8.950177 0.147964 -3.862109 -6.945835 1.758879 -8.344167 -23.764732 0.000000 0.000000 0.000000 18.532837 14.127289 -20.630765 -0.098211 -2.020553 5.562423 -1.052314 -0.603847 -19.616279 -2.336694 9.534662 -27.482610 -5.137388 -1.740517 -29.860227 0.260434 -1.434376 -2.304143 2.437669 -1.284535 13.222720 -2.972568 -2.982385 0.587237 7.107388 -4.194652 -14.252134 2.847493 -2.649564 -4.121457 0.000000 0.000000 0.000000 4.243729 -2.293110 -13.766964 7.469609 -12.689372 0.831882 22.128564 11.137528 11.768688 0.000000 0.000000 0.000000 -7.125000 0.000000 0.000000 -3.521478 17.319348 -2.317828 0.000000 0.000000 0.000000 1.688625 5.074113 -5.275293 -10.910159 -18.150408 -1.747860 -13.635293 21.561856 43.955845 0.000000 0.000000 0.000000 7.125000 0.000000 0.000000 38.437729 71.457563 -25.352396
9.345092 16.300184 19.959028 178.885896 -3.276438 -152.157923 0.000000 0.000000 0.000000 -16.821512 -18.723511 -21.940669 0.253506 3.239336 8.945808 0.151226 -3.763107 -7.000045 1.464204 -7.644690 -21.641324 0.000000 0.000000 0.000000 18.556585 14.075019 -20.705637 -0.098588 -2.025038 5.574755 -1.048634 -0.515290 -19.549821 -2.367999 9.593797 -27.670989 -5.136282 -1.742090 -29.896581 0.286483 -1.434010 -2.274945 2.464335 -1.284834 13.273411 -2.972592 -2.932721 0.599815 7.148202 -4.141125 -14.490848 2.865434 -2.639635 -4.197786 0.000000 0.000000 0.000000 4.170581 -2.425792 -11.107012 6.924781 -11.795181 0.716408 22.084345 13.654346 11.616993 0.000000 0.000000 0.000000 -7.125000 0.000000 0.000000 -3.546619 17.485603 -2.321527 0.000000 0.000000 0.000000 1.656621 4.998152 -6.332453 -10.712986 -17.846907 -1.686932 -13.708465 22.637080 45.196317 0.000000 0.000000 0.000000 7.125000 0.000000 0.000000 41.126307 72.370716 -28.042214
9.343328 16.300008 19.955008 178.849155 -3.241819 -152.188371 0.000000 0.000000 0.000000 -16.870433 -18.771889 -21.839653 0.249893 3.216456 8.882069 0.147978 -3.763882 -6.930575 1.218213 -6.998564 -19.712297 0.000000 0.000000 0.000000 18.527857 14.001887 -20.676242 -0.097675 -2.015211 5.547731 -1.039429 -0.516397 -19.464688 -2.360914 9.580537 -27.628760 -5.251169 -1.821284 -29.901652 0.329349 -1.491072 -2.207434 2.550811 -1.315883 13.360849 -2.951428 -2.848411 0.735602 7.170785 -4.047270 -14.889855 2.880288 -2.617828 -4.346858 0.000000 0.000000 0.000000 4.083609 -2.548792 -8.214040 6.443128 -10.999043 0.621259 22.045955 16.342617 11.368182 0.000000 0.000000 0.000000 -7.125000 0.000000 0.000000 -3.564408 17.755210 -2.312189 0.000000 0.000000 0.000000 1.622059 4.972760 -7.245008 -10.600736 -17.673753 -1.652679 -15.483570 25.339446 48.336027 0.000000 0.000000 0.000000 7.125000 0.000000 0.000000 48.159270 75.011931 -35.874319
9.340379 16.300546 19.951516 178.782311 -3.175347 -152.201918 0.000000 0.000000 0.000000 -17.021095 -18.700601 -21.812402 0.248781 3.209505 8.862706 0.144334 -3.749115 -6.850456 1.313713 -7.259240 -20.486121 0.000000 0.000000 0.000000 18.438418 13.939061 -20.652391 -0.096690 -2.005483 5.520843 -1.038063 -0.423276 -19.417430 -2.328719 9.519605 -27.434705 -5.323371 -1.867551 -29.889526 0.310955 -1.519629 -2.174805 2.559156 -1.331502 13.395450 -2.910940 -2.775108 0.684548 7.214253 -3.955739 -15.009992 2.886677 -2.586712 -4.379436 0.000000 0.000000 0.000000 4.093641 -2.480308 -5.683738 6.070147 -10.378969 0.551957 22.102877 18.644694 11.228609 0.000000 0.000000 0.000000 -7.125000 0.000000 0.000000 -3.519480 17.899485 -2.271731 0.000000 0.000000 0.000000 1.645240 5.089017 -7.621056 -10.565305 -17.618983 -1.641920 -16.244296 26.483912 50.128352 0.000000 0.000000 0.000000 7.125000 0.000000 0.000000 53.597355 76.264161 -41.582990
9.336521 16.300511 19.950126 178.772421 -3.079249 -152.141257 0.000000 0.000000 0.000000 -17.061997 -18.682999 -21.912778 0.255411 3.251504 8.979864 0.146953 -3.717713 -6.902606 1.374931 -7.420365 -20.966896 0.000000 0.000000 0.000000 18.372979 13.949149 -20.731550 -0.097674 -2.015606 5.548735 -1.046948 -0.250426 -19.437650 -2.298755 9.462427 -27.252952 -5.315820 -1.865773 -29.936710 0.295736 -1.517794 -2.173353 2.537824 -1.331547 13.417170 -2.853679 -2.698972 0.646544 7.218400 -3.862302 -15.125553 2.878162 -2.552571 -4.414251 0.000000 0.000000 0.000000 4.130735 -2.206569 -4.160726 5.869647 -10.044494 0.516360 22.105221 20.027573 10.945568 0.000000 0.000000 0.000000 -7.125000 0.000000 0.000000 -3.508189 18.202250 -2.240955 0.000000 0.000000 0.000000 1.622208 5.170675 -7.899098 -10.488330 -17.499726 -1.618729 -16.792901 27.168832 50.920126 0.000000 0.000000 0.000000 7.125000 0.000000 0.000000 56.217683 76.848916 -44.409270
